<svg width="50" height="23" viewBox="0 0 50 23" fill="none" xmlns="http://www.w3.org/2000/svg">
<path d="M46.7889 3.95003C44.719 1.93406 41.9587 0.825836 39.0162 0.825836C36.0739 0.825836 33.3136 1.93406 31.2436 3.95003L26.5306 8.52958L28.0539 10.0247L32.767 5.43196C34.4336 3.81649 36.6469 2.92208 39.0033 2.92208C41.3597 2.92208 43.5732 3.81649 45.2397 5.43196C48.6769 8.78309 48.6769 14.2304 45.2397 17.568C43.5732 19.1835 41.3597 20.0779 39.0033 20.0779C36.6469 20.0779 34.4336 19.1835 32.767 17.568L18.7579 3.95003C16.6748 1.93406 13.9146 0.825836 10.9852 0.825836C8.04286 0.825836 5.28259 1.93406 3.2125 3.95003C1.07311 6.03049 0.00234759 8.7693 3.83922e-06 11.5C-0.00233991 14.2365 1.06842 16.9648 3.2125 19.05C5.28259 21.0658 8.04275 22.1742 10.9852 22.1742C13.9277 22.1742 16.6877 21.0658 18.758 19.05L23.4579 14.4705L21.9348 12.9885L17.2218 17.568C15.5552 19.1835 13.3419 20.0779 10.9853 20.0779C8.62891 20.0779 6.41563 19.1835 4.74911 17.568C1.31172 14.2168 1.31172 8.76963 4.74911 5.43196C6.41563 3.81649 8.62891 2.92208 10.9853 2.92208C13.3419 2.92208 15.5552 3.81649 17.2218 5.43196L31.2307 19.0501C33.3136 21.0658 36.0739 22.1742 39.0033 22.1742C41.9456 22.1742 44.7059 21.0658 46.776 19.05C48.9242 16.9738 49.9983 14.2352 50 11.5C50.0017 8.76463 48.9308 6.03282 46.7889 3.95003Z" fill="black"/>
</svg>
