<svg width="251" height="71" viewBox="0 0 251 71" fill="none" xmlns="http://www.w3.org/2000/svg">
<path d="M239.704 58.3786V51.0572H250.74V58.3786H239.704Z" fill="#F2C14E"/>
<path d="M222.664 58.9143C218.51 58.9143 215.531 58.1524 213.73 56.6286C211.928 55.081 210.939 52.5929 210.764 49.1643C210.689 47.5215 210.639 45.6643 210.614 43.5929C210.589 41.4977 210.576 39.3429 210.576 37.1286C210.576 34.8905 210.589 32.7119 210.614 30.5929C210.639 28.45 210.689 26.5215 210.764 24.8072C210.964 21.2596 211.99 18.7358 213.842 17.2358C215.694 15.7119 218.61 14.95 222.589 14.95C226.618 14.95 229.508 15.7239 231.26 17.2715C233.012 18.7953 233.976 21.2239 234.151 24.5572C234.176 25.1048 234.188 26.1405 234.188 27.6643C234.213 29.1643 234.213 30.8667 234.188 32.7715C234.188 34.6524 234.151 36.4381 234.076 38.1286H217.296C217.296 40.0334 217.308 41.9619 217.333 43.9143C217.383 45.8429 217.421 47.8191 217.446 49.8429C217.496 51.3905 217.921 52.4739 218.722 53.0929C219.523 53.7119 220.799 54.0215 222.551 54.0215C224.303 54.0215 225.542 53.7119 226.268 53.0929C227.018 52.4739 227.431 51.3786 227.506 49.8072C227.556 49.0929 227.581 48.1405 227.581 46.95C227.581 45.7596 227.544 44.4977 227.469 43.1643H234.076C234.126 43.9024 234.163 44.9024 234.188 46.1643C234.213 47.4024 234.201 48.4024 234.151 49.1643C233.976 52.6405 233.012 55.1405 231.26 56.6643C229.533 58.1643 226.668 58.9143 222.664 58.9143ZM217.296 33.4143H227.581C227.606 32.1286 227.619 30.8429 227.619 29.5572C227.644 28.2715 227.644 27.1286 227.619 26.1286C227.594 25.1048 227.556 24.3905 227.506 23.9858C227.406 22.4381 226.968 21.3548 226.192 20.7358C225.417 20.1167 224.215 19.8072 222.589 19.8072C220.712 19.8072 219.398 20.1524 218.647 20.8429C217.896 21.5334 217.496 22.581 217.446 23.9858C217.421 25.5334 217.383 27.0929 217.333 28.6643C217.308 30.2358 217.296 31.8191 217.296 33.4143Z" fill="black"/>
<path d="M191.023 70.7C187.319 70.7 184.403 70.1881 182.276 69.1643C180.149 68.1405 178.96 66.6048 178.71 64.5572C178.685 64.2238 178.66 63.9024 178.635 63.5929C178.61 63.2834 178.61 62.9858 178.635 62.7C178.71 61.4143 179.248 60.3667 180.249 59.5572C181.25 58.7715 182.389 58.2834 183.665 58.0929V57.0929C182.214 56.7119 181.188 56.2 180.587 55.5572C180.011 54.9143 179.673 54.1524 179.573 53.2715C179.548 53.081 179.523 52.8548 179.498 52.5929C179.498 52.3072 179.511 52.0334 179.536 51.7715C179.636 50.8191 180.086 49.9977 180.887 49.3072C181.688 48.6167 182.689 48.1881 183.89 48.0215V46.95C182.264 46.2596 181.075 45.2119 180.324 43.8072C179.573 42.4024 179.123 40.5453 178.973 38.2358C178.948 37.4262 178.923 36.4262 178.898 35.2358C178.873 34.0215 178.86 32.7596 178.86 31.45C178.86 30.1405 178.873 28.9024 178.898 27.7358C178.923 26.5691 178.948 25.6048 178.973 24.8429C179.148 22.4619 179.648 20.5453 180.474 19.0929C181.3 17.6405 182.551 16.5929 184.228 15.95C185.905 15.2834 188.082 14.95 190.76 14.95C193.538 14.95 195.765 15.2953 197.442 15.9858C199.119 16.6524 200.357 17.7596 201.158 19.3072H202.209C202.359 18.0691 202.885 17.1286 203.786 16.4858C204.712 15.8429 205.938 15.5215 207.465 15.5215V20.4143H206.601C205.35 20.4143 204.362 20.8072 203.636 21.5929C202.91 22.3548 202.547 23.581 202.547 25.2715V27.0572C202.547 27.2239 202.547 27.7596 202.547 28.6643C202.572 29.5691 202.585 30.6405 202.585 31.8786C202.585 33.0929 202.572 34.2953 202.547 35.4858C202.547 36.6524 202.522 37.581 202.472 38.2715C202.322 40.6524 201.834 42.5691 201.008 44.0215C200.207 45.45 198.968 46.4858 197.292 47.1286C195.64 47.7477 193.463 48.0572 190.76 48.0572C188.708 48.0334 187.194 48.2358 186.218 48.6643C185.242 49.0691 184.754 49.7358 184.754 50.6643V51.0215C184.754 51.6167 184.966 52.0929 185.392 52.45C185.842 52.7834 186.531 53.0334 187.457 53.2C188.382 53.3667 189.621 53.4619 191.173 53.4858C195.452 53.6286 198.618 54.2715 200.67 55.4143C202.747 56.5334 203.924 58.3786 204.199 60.95C204.224 61.2834 204.236 61.6405 204.236 62.0215C204.261 62.4262 204.249 62.8191 204.199 63.2C203.999 65.1048 203.335 66.6048 202.209 67.7C201.108 68.7953 199.594 69.5691 197.667 70.0215C195.765 70.4739 193.55 70.7 191.023 70.7ZM191.135 66.2C192.687 66.2 193.988 66.0929 195.039 65.8786C196.115 65.6881 196.954 65.3429 197.554 64.8429C198.155 64.3667 198.53 63.7 198.681 62.8429C198.756 62.5334 198.793 62.2358 198.793 61.95C198.793 61.6881 198.756 61.4024 198.681 61.0929C198.556 60.3548 198.218 59.7715 197.667 59.3429C197.142 58.9143 196.353 58.6048 195.302 58.4143C194.251 58.2239 192.862 58.1167 191.135 58.0929C189.083 58.0453 187.444 58.2119 186.218 58.5929C185.016 58.9738 184.328 59.8429 184.153 61.2C184.128 61.6286 184.116 61.95 184.116 62.1643C184.116 62.3786 184.128 62.6167 184.153 62.8786C184.278 63.7834 184.629 64.4738 185.204 64.95C185.805 65.4262 186.606 65.7477 187.607 65.9143C188.608 66.1048 189.784 66.2 191.135 66.2ZM190.76 43.2358C192.612 43.2358 193.913 42.9024 194.664 42.2358C195.44 41.5453 195.878 40.4381 195.978 38.9143C196.028 38.1762 196.065 37.1286 196.09 35.7715C196.141 34.3905 196.166 32.9381 196.166 31.4143C196.166 29.8667 196.141 28.4262 196.09 27.0929C196.065 25.7596 196.028 24.7358 195.978 24.0215C195.903 22.5453 195.477 21.4739 194.702 20.8072C193.951 20.1405 192.649 19.8072 190.797 19.8072C188.971 19.8072 187.644 20.1405 186.818 20.8072C185.993 21.4739 185.542 22.6167 185.467 24.2358C185.442 24.8786 185.417 25.8548 185.392 27.1643C185.367 28.4739 185.342 29.8905 185.317 31.4143C185.317 32.9381 185.329 34.3786 185.354 35.7358C185.379 37.0929 185.417 38.1286 185.467 38.8429C185.567 40.3667 186.005 41.4858 186.781 42.2C187.582 42.8905 188.908 43.2358 190.76 43.2358Z" fill="black"/>
<path d="M156.525 58.9143C153.722 58.9143 151.633 58.1881 150.256 56.7357C148.905 55.2595 148.154 52.8547 148.004 49.5214C147.929 47.6643 147.879 45.6404 147.854 43.45C147.829 41.2357 147.816 38.9976 147.816 36.7357C147.816 34.4738 147.829 32.2833 147.854 30.1643C147.904 28.0452 147.954 26.1166 148.004 24.3785C148.104 20.95 148.892 18.5214 150.369 17.0928C151.87 15.6643 153.972 14.95 156.675 14.95C158.702 14.95 160.279 15.3309 161.405 16.0928C162.556 16.8547 163.57 18.0095 164.446 19.5571H165.572V1.23569H172.329V58.3785H165.572V54.3071H164.371C163.495 55.8309 162.469 56.9857 161.293 57.7714C160.141 58.5333 158.552 58.9143 156.525 58.9143ZM159.003 54.1285C160.454 54.1285 161.768 53.8071 162.944 53.1642C164.145 52.5214 165.021 51.4976 165.572 50.0928V23.7714C165.021 22.3666 164.145 21.3428 162.944 20.7C161.768 20.0571 160.454 19.7357 159.003 19.7357C157.526 19.7357 156.463 20.0571 155.812 20.7C155.161 21.319 154.811 22.3428 154.761 23.7714C154.636 26.6523 154.548 29.6523 154.498 32.7714C154.473 35.8666 154.473 38.8904 154.498 41.8428C154.523 44.7714 154.586 47.4262 154.686 49.8071C154.736 51.4262 155.099 52.5571 155.774 53.2C156.475 53.819 157.551 54.1285 159.003 54.1285Z" fill="black"/>
<path d="M121.596 58.3785V1.23569H142.468V6.87854H128.203V26.7714H141.717V32.4143H128.203V52.7357H142.468V58.3785H121.596Z" fill="black"/>
<path d="M90.7206 58.3785V1.23569H97.3275V58.3785H90.7206Z" fill="black"/>
<path d="M75.9104 58.3785V1.23569H82.5172V58.3785H75.9104Z" fill="black"/>
<path d="M60.2743 7.23569V1.23569H68.5704V7.23569H60.2743ZM61.1001 58.3785V15.5214H67.707V58.3785H61.1001Z" fill="#F2C14E"/>
<path d="M32.6527 58.3785V1.23569H38.9968V12.2714L38.3211 34.0571H39.6725L43.9895 23.5571L48.0061 15.5214H54.9508L46.0541 32.8428L56.9028 58.3785H49.9206L41.9624 39.3785L39.1469 44.0928V58.3785H32.6527Z" fill="black"/>
<path d="M13.1278 58.9143C8.87341 58.9143 5.80774 58.1048 3.93079 56.4857C2.05385 54.8667 1.0403 52.1881 0.890146 48.45C0.86512 47.1643 0.840094 45.95 0.815068 44.8072C0.815068 43.6643 0.827581 42.5095 0.852607 41.3429C0.902659 40.1762 0.965223 38.9381 1.0403 37.6286H7.34683C7.24673 39.6762 7.18416 41.6643 7.15913 43.5929C7.15913 45.4976 7.2217 47.4143 7.34683 49.3429C7.44693 50.8667 7.93494 51.95 8.81085 52.5929C9.68675 53.2119 11.1132 53.5214 13.0903 53.5214C14.9922 53.5214 16.3562 53.2119 17.182 52.5929C18.0329 51.95 18.5209 50.8667 18.646 49.3429C18.7461 48.3191 18.7962 47.2357 18.7962 46.0929C18.8212 44.95 18.8087 43.8072 18.7586 42.6643C18.7336 41.5214 18.6961 40.45 18.646 39.45C18.5709 37.6405 18.158 36.2714 17.4072 35.3429C16.6565 34.4143 15.4677 33.7476 13.8411 33.3429L9.29885 32.3072C7.17165 31.8072 5.49491 31.0929 4.26864 30.1643C3.0674 29.2119 2.20401 27.95 1.67846 26.3786C1.15292 24.7833 0.852607 22.7952 0.777529 20.4143C0.752503 18.9381 0.73999 17.4143 0.73999 15.8429C0.765016 14.2714 0.790042 12.6762 0.815068 11.0572C0.890146 8.58097 1.35312 6.59287 2.20401 5.09287C3.05489 3.56906 4.36875 2.46192 6.14559 1.77144C7.92242 1.05716 10.2373 0.700012 13.0903 0.700012C17.2195 0.700012 20.2101 1.50954 22.0621 3.12859C23.914 4.72383 24.9025 7.37859 25.0276 11.0929C25.0777 12.5453 25.0902 14.1405 25.0652 15.8786C25.0401 17.5929 25.0026 19.3786 24.9526 21.2357H18.5334C18.6085 19.1405 18.646 17.2119 18.646 15.45C18.6711 13.6643 18.646 11.9262 18.5709 10.2357C18.5209 8.68811 18.0704 7.60477 17.2195 6.98573C16.3687 6.36668 14.9797 6.05716 13.0527 6.05716C11.1257 6.05716 9.7368 6.36668 8.88592 6.98573C8.03504 7.60477 7.54704 8.68811 7.42191 10.2357C7.3218 11.9738 7.27175 13.6643 7.27175 15.3072C7.29678 16.9262 7.34683 18.6286 7.42191 20.4143C7.49698 22.3191 7.80981 23.7476 8.36038 24.7C8.91095 25.6286 9.86193 26.2476 11.2133 26.5572L15.4177 27.45C17.8202 27.9738 19.7221 28.7238 21.1236 29.7C22.5501 30.6762 23.5761 31.9619 24.2018 33.5572C24.8524 35.1286 25.2153 37.0929 25.2904 39.45C25.3405 40.3786 25.3655 41.3667 25.3655 42.4143C25.3655 43.4619 25.353 44.4976 25.3279 45.5214C25.3279 46.5452 25.3029 47.5214 25.2529 48.45C25.1027 52.1881 24.0892 54.8667 22.2122 56.4857C20.3603 58.1048 17.3322 58.9143 13.1278 58.9143Z" fill="black"/>
</svg>
