<svg width="50" height="38" viewBox="0 0 50 38" fill="none" xmlns="http://www.w3.org/2000/svg">
<path d="M41.8801 2.9487C39.8568 0.92513 36.8214 0.229145 33.9587 1.13177L25 3.95692L16.0412 1.13177C13.1784 0.228944 10.1432 0.92523 8.11982 2.9487L2.20012 8.8679C-0.865016 11.9334 -0.708248 17.0834 2.55013 20.3479C6.12738 23.932 9.98552 27.7965 13.202 31.0125C13.0532 31.5731 13.053 32.1627 13.2016 32.7234C13.3502 33.284 13.6423 33.7963 14.0492 34.2096L14.0923 34.2528C14.3999 34.5584 14.7649 34.8001 15.1663 34.9641C15.5676 35.1281 15.9975 35.2111 16.431 35.2084C16.7228 35.2081 17.0135 35.1715 17.2963 35.0996L17.6388 35.4405C18.1459 35.9478 18.7903 36.2958 19.4926 36.4416C20.0964 36.9728 20.8747 37.263 21.6789 37.2568C21.7198 37.2568 21.7607 37.2561 21.8017 37.2547C22.7285 37.2192 23.6069 36.8321 24.2584 36.1722L25 35.4299L25.7423 36.1722C26.3939 36.8321 27.2723 37.2192 28.199 37.2547C28.2401 37.2561 28.2809 37.2568 28.3217 37.2568C29.124 37.2626 29.9004 36.9736 30.5037 36.4447C31.207 36.2966 31.8523 35.9478 32.3614 35.4405L32.7056 35.0979C33.2668 35.2467 33.8571 35.2471 34.4185 35.0989C34.9799 34.9508 35.4932 34.6592 35.9079 34.2528L35.9503 34.2102C36.356 33.7963 36.6473 33.2841 36.7957 32.7238C36.944 32.1635 36.9444 31.5743 36.7967 31.0139C39.9836 27.8279 43.7929 24.0122 47.4498 20.3482C50.7082 17.0839 50.8653 11.9337 47.7994 8.8682L41.8801 2.9487ZM15.2325 33.1134L15.1894 33.0703C15.0943 32.975 15.0116 32.8682 14.943 32.7523L15.5517 33.3602C15.4353 33.2916 15.3281 33.2086 15.2325 33.1132V33.1134ZM23.1177 35.0326C23.0166 35.1334 22.9057 35.2239 22.7867 35.3028C23.1253 34.8975 23.3594 34.4153 23.4685 33.8986L23.8602 34.2903L23.1177 35.0326ZM34.8103 33.0706L34.7677 33.1131C34.077 33.804 32.8948 33.7457 32.1323 32.9834L19.754 20.6048C19.6795 20.5286 19.5905 20.4679 19.4924 20.4263C19.3943 20.3847 19.2888 20.363 19.1822 20.3624C19.0756 20.3618 18.97 20.3823 18.8714 20.4228C18.7728 20.4634 18.6832 20.523 18.6078 20.5984C18.5324 20.6738 18.4727 20.7634 18.4322 20.862C18.3917 20.9606 18.3711 21.0663 18.3717 21.1729C18.3723 21.2795 18.3941 21.3849 18.4357 21.483C18.4773 21.5812 18.538 21.6701 18.6142 21.7446L29.3865 32.517L29.392 32.5226C29.7627 32.8857 29.9813 33.3764 30.0032 33.8948C30.0162 34.1279 29.9798 34.3611 29.8965 34.5792C29.8132 34.7972 29.6848 34.9953 29.5197 35.1603C29.3546 35.3254 29.1566 35.4538 28.9385 35.5371C28.7205 35.6204 28.4873 35.6567 28.2542 35.6438C27.7358 35.6219 27.2451 35.4033 26.882 35.0326L25.5697 33.7204L16.1042 24.2549C15.953 24.1038 15.748 24.0189 15.5343 24.0189C15.3205 24.0189 15.1155 24.1038 14.9643 24.2549C14.8132 24.4061 14.7282 24.6111 14.7282 24.8249C14.7282 25.0386 14.8132 25.2437 14.9643 25.3948L21.3134 31.7439L21.3177 31.7483C21.6884 32.1114 21.9069 32.602 21.9289 33.1205C21.9405 33.3529 21.9037 33.5852 21.8209 33.8026C21.738 34.02 21.6109 34.2179 21.4475 34.3836L21.4072 34.4239C20.7181 35.1128 19.5377 35.0564 18.7758 34.2982C18.5536 34.077 18.3208 33.8452 18.0775 33.603L18.0734 33.5988C17.1235 32.6523 16.0226 31.553 14.8211 30.3522C14.7539 30.2407 14.6606 30.1473 14.5491 30.0801C11.2924 26.8245 7.34545 22.871 3.69092 19.2091C1.05992 16.5732 0.902653 12.4454 3.34031 10.0077L9.25961 4.0887C10.8563 2.4921 13.269 1.94815 15.5565 2.66942L22.32 4.80201L18.5419 5.99349C18.3662 6.04888 18.2147 6.16279 18.1128 6.31625C18.0109 6.4697 17.9646 6.65344 17.9817 6.83687L18.0739 7.82614C18.0968 8.44043 18.2454 9.0435 18.5104 9.59815C18.7754 10.1528 19.1513 10.6473 19.6148 11.0511C20.0898 11.4614 20.6443 11.7695 21.2437 11.9561C21.8431 12.1427 22.4745 12.2039 23.0985 12.1358L23.6355 12.0832L24.4304 12.8791L35.4963 23.9606C36.2575 24.7229 36.3153 25.9051 35.6249 26.595L35.6207 26.5993C34.9464 27.2692 33.8081 27.229 33.0464 26.5208C31.7906 25.2649 30.4213 23.8963 29.1207 22.5966C26.2047 19.6818 23.6864 17.1645 23.4431 16.9195C23.2922 16.769 23.0879 16.6844 22.8748 16.6842C22.6617 16.6839 22.4572 16.7681 22.306 16.9182C22.1548 17.0683 22.0692 17.2722 22.0679 17.4853C22.0666 17.6984 22.1498 17.9033 22.2992 18.0552C22.5447 18.3026 25.0639 20.8207 27.9815 23.7367L31.8165 27.5701C31.8271 27.5821 31.8381 27.5938 31.8496 27.6053C31.8744 27.6302 31.9 27.6546 31.9249 27.6786C32.9525 28.7063 33.9047 29.658 34.6817 30.435C35.4434 31.1974 35.5013 32.3795 34.8103 33.0704V33.0706ZM46.3087 19.2091C42.7901 22.7345 39.1296 26.4011 36.0194 29.5111C35.9563 29.4375 35.8908 29.3652 35.8211 29.2955C35.6065 29.0808 35.3785 28.8527 35.1392 28.6135C35.7547 28.4848 36.3193 28.1796 36.7642 27.7353L36.7703 27.7293C38.0828 26.4103 38.0237 24.2105 36.6367 22.8216L26.1385 12.309L26.8639 11.5821C26.9812 11.4646 27.0594 11.3137 27.0877 11.1501C27.1161 10.9864 27.0932 10.818 27.0221 10.6679C26.9511 10.5178 26.8354 10.3932 26.691 10.3113C26.5465 10.2295 26.3802 10.1942 26.2149 10.2104L22.9405 10.5315C22.5347 10.5773 22.1238 10.539 21.7334 10.4191C21.343 10.2991 20.9815 10.1001 20.6714 9.8343C20.3714 9.57134 20.1288 9.2494 19.9587 8.88856C19.7887 8.52773 19.6947 8.13572 19.6828 7.73698C19.6828 7.72337 19.6812 7.70967 19.68 7.69617L19.6464 7.33518L25.2272 5.57527L25.23 5.57447L34.4429 2.66922C36.73 1.94775 39.1429 2.4917 40.7398 4.0885L46.659 10.0077C49.0972 12.4454 48.9399 16.5732 46.3087 19.2091Z" fill="black"/>
</svg>
