<svg width="50" height="27" viewBox="0 0 50 27" fill="none" xmlns="http://www.w3.org/2000/svg">
<path d="M25 16.2344C26.5102 16.2344 27.7344 15.0102 27.7344 13.5C27.7344 11.9898 26.5102 10.7656 25 10.7656C23.4898 10.7656 22.2656 11.9898 22.2656 13.5C22.2656 15.0102 23.4898 16.2344 25 16.2344Z" fill="black"/>
<path d="M34.375 16.2344C35.8852 16.2344 37.1094 15.0102 37.1094 13.5C37.1094 11.9898 35.8852 10.7656 34.375 10.7656C32.8648 10.7656 31.6406 11.9898 31.6406 13.5C31.6406 15.0102 32.8648 16.2344 34.375 16.2344Z" fill="black"/>
<path d="M15.625 16.2344C17.1352 16.2344 18.3594 15.0102 18.3594 13.5C18.3594 11.9898 17.1352 10.7656 15.625 10.7656C14.1148 10.7656 12.8906 11.9898 12.8906 13.5C12.8906 15.0102 14.1148 16.2344 15.625 16.2344Z" fill="black"/>
<path fill-rule="evenodd" clip-rule="evenodd" d="M16.2543 0.785707C16.8604 1.47573 16.7902 2.52455 16.0975 3.12832L4.19765 13.5L16.0975 23.8717C16.7902 24.4754 16.8604 25.5243 16.2543 26.2143C15.6482 26.9043 14.5952 26.9742 13.9025 26.3705L0.569159 14.7494C0.207467 14.4341 0 13.9787 0 13.5C0 13.0213 0.207467 12.5659 0.569159 12.2506L13.9025 0.629533C14.5952 0.0257654 15.6482 0.0956869 16.2543 0.785707ZM33.7457 0.785707C34.3518 0.0956869 35.4048 0.0257654 36.0975 0.629533L49.4308 12.2506C49.7925 12.5659 50 13.0213 50 13.5C50 13.9787 49.7925 14.4341 49.4308 14.7494L36.0975 26.3705C35.4048 26.9742 34.3518 26.9043 33.7457 26.2143C33.1396 25.5243 33.2098 24.4754 33.9025 23.8717L45.8023 13.5L33.9025 3.12832C33.2098 2.52455 33.1396 1.47573 33.7457 0.785707Z" fill="black"/>
</svg>
