<svg width="50" height="50" viewBox="0 0 50 50" fill="none" xmlns="http://www.w3.org/2000/svg">
<path d="M43.0556 23.6111C42.2222 23.6111 41.6667 23.0556 41.6667 22.2222V19.4444C41.6667 15 40 10.8333 36.8056 7.63889C33.6111 4.44444 29.4444 2.77778 25 2.77778C15.8333 2.77778 8.33334 10.2778 8.33334 19.4444V22.2222C8.33334 23.0556 7.77778 23.6111 6.94445 23.6111C6.11111 23.6111 5.55556 23.0556 5.55556 22.2222V19.4444C5.55556 8.75 14.3056 0 25 0C30.1389 0 35.1389 2.08333 38.75 5.69444C42.3611 9.30556 44.4444 14.3056 44.4444 19.4444V22.2222C44.4444 23.0556 43.8889 23.6111 43.0556 23.6111ZM27.0833 43.0556H22.9167C20.9722 43.0556 19.4444 44.5833 19.4444 46.5278C19.4444 48.4722 20.9722 50 22.9167 50H27.0833C29.0278 50 30.5556 48.4722 30.5556 46.5278C30.5556 44.5833 29.0278 43.0556 27.0833 43.0556ZM27.0833 47.2222H22.9167C22.5 47.2222 22.2222 46.9444 22.2222 46.5278C22.2222 46.1111 22.5 45.8333 22.9167 45.8333H27.0833C27.5 45.8333 27.7778 46.1111 27.7778 46.5278C27.7778 46.9444 27.5 47.2222 27.0833 47.2222Z" fill="black"/>
<path d="M33.3333 48.6111H29.1667C28.3333 48.6111 27.7778 48.0555 27.7778 47.2222C27.7778 46.3889 28.3333 45.8333 29.1667 45.8333H33.3333C37.9167 45.8333 41.6667 42.0833 41.6667 37.5C41.6667 36.6667 42.2222 36.1111 43.0556 36.1111C43.8889 36.1111 44.4444 36.6667 44.4444 37.5C44.4444 43.6111 39.4444 48.6111 33.3333 48.6111ZM25 40.2778C22.3611 40.2778 19.8611 39.0278 18.3333 36.9444C17.9167 36.3889 18.0556 35.4167 18.6111 35C19.1667 34.5833 20.1389 34.7222 20.5556 35.2778C21.5278 36.6667 23.1944 37.5 25 37.5C26.8056 37.5 28.4722 36.6667 29.4444 35.2778C29.8611 34.7222 30.6944 34.5833 31.3889 35C31.9444 35.4167 32.0833 36.25 31.6667 36.9444C30.1389 39.0278 27.6389 40.2778 25 40.2778Z" fill="black"/>
<path d="M9.72222 20.8333H5.55556C2.5 20.8333 0 23.3333 0 26.3889V33.3333C0 36.3889 2.5 38.8889 5.55556 38.8889H9.72222C10.4167 38.8889 11.1111 38.1944 11.1111 37.5V22.2222C11.1111 21.5278 10.4167 20.8333 9.72222 20.8333ZM8.33333 36.1111H5.55556C4.02778 36.1111 2.77778 34.8611 2.77778 33.3333V26.3889C2.77778 24.8611 4.02778 23.6111 5.55556 23.6111H8.33333V36.1111ZM44.4444 20.8333H40.2778C39.5833 20.8333 38.8889 21.5278 38.8889 22.2222V37.5C38.8889 38.1944 39.5833 38.8889 40.2778 38.8889H44.4444C47.5 38.8889 50 36.3889 50 33.3333V26.3889C50 23.3333 47.5 20.8333 44.4444 20.8333ZM47.2222 33.3333C47.2222 34.8611 45.9722 36.1111 44.4444 36.1111H41.6667V23.6111H44.4444C45.9722 23.6111 47.2222 24.8611 47.2222 26.3889V33.3333Z" fill="black"/>
</svg>
